<svg width="82" height="80" viewBox="0 0 82 80" fill="none" xmlns="http://www.w3.org/2000/svg">
<g clip-path="url(#clip0)">
<path d="M41.2271 0C19.1612 0 1.27246 17.8888 1.27246 39.9546C1.27246 62.0204 19.1612 79.9092 41.2271 79.9092C63.2929 79.9092 81.1817 62.0204 81.1817 39.9546C81.2725 17.8888 63.2929 0 41.2271 0ZM41.2271 71.101C30.6936 71.101 21.4314 65.8343 15.8014 57.8434L24.882 46.5834L33.3269 54.8468L33.0545 55.21C31.6924 57.2077 32.2373 60.0227 34.235 61.3848C34.9615 61.9296 35.8695 62.1112 36.6868 62.1112C38.1397 62.1112 39.5017 61.3848 40.4098 60.2043L55.4836 38.1385L69.1045 52.1226C69.2861 52.3042 69.4677 52.395 69.6493 52.5766C64.8366 63.4733 53.9399 71.101 41.2271 71.101ZM72.1919 42.4972L58.0261 27.9682C57.1181 26.9694 55.8468 26.5153 54.4847 26.6061C53.1226 26.6969 51.9422 27.4234 51.2157 28.5131L38.5029 47.3099L27.697 36.7764C26.7889 35.8683 25.6084 35.4143 24.3372 35.5051C23.0659 35.5959 21.8854 36.1408 21.159 37.1396L11.5335 49.0352C10.6255 46.1294 10.1714 43.1328 10.1714 39.9546C10.1714 22.7923 24.1556 8.80817 41.3179 8.80817C58.4802 8.80817 72.4643 22.7923 72.4643 39.9546C72.3735 40.8627 72.2827 41.6799 72.1919 42.4972Z" fill="url(#paint0_linear)"/>
<path d="M34.7798 30.5108C37.2372 30.5108 39.2293 28.5187 39.2293 26.0613C39.2293 23.6039 37.2372 21.6118 34.7798 21.6118C32.3224 21.6118 30.3303 23.6039 30.3303 26.0613C30.3303 28.5187 32.3224 30.5108 34.7798 30.5108Z" fill="url(#paint1_linear)"/>
</g>
<defs>
<linearGradient id="paint0_linear" x1="1.27246" y1="0" x2="95.829" y2="25.4148" gradientUnits="userSpaceOnUse">
<stop stop-color="#009FE3"/>
<stop offset="0.512001" stop-color="#E6007E"/>
<stop offset="1" stop-color="#FFED00"/>
</linearGradient>
<linearGradient id="paint1_linear" x1="30.3303" y1="21.6118" x2="40.8604" y2="24.4421" gradientUnits="userSpaceOnUse">
<stop stop-color="#009FE3"/>
<stop offset="0.512001" stop-color="#E6007E"/>
<stop offset="1" stop-color="#FFED00"/>
</linearGradient>
<clipPath id="clip0">
<rect width="80.5448" height="80" fill="white" transform="translate(0.727539)"/>
</clipPath>
</defs>
</svg>
