<svg width="106" height="82" viewBox="0 0 106 82" fill="none" xmlns="http://www.w3.org/2000/svg">
<path d="M17.6456 4.2605L17.6242 4.50959C17.7482 4.52021 17.8718 4.53851 17.9942 4.5648L17.9944 4.56485L72.7495 16.2724L72.7754 16.278H72.8018H88.3382L88.3904 15.7835L18.7779 0.89908L18.7778 0.899072C18.3077 0.79863 17.8374 0.75 17.3733 0.75H17.3733C14.2613 0.750412 11.4415 2.92636 10.7634 6.08493L8.64019 15.9755L8.57526 16.278H8.88462H12.207H12.409L12.4514 16.0804L14.4286 6.87197L14.4287 6.87194C14.7234 5.49835 15.963 4.49933 17.3735 4.4986C17.4145 4.4986 17.4546 4.49934 17.4941 4.50113L17.4948 4.50115C17.5372 4.50296 17.5804 4.50587 17.6245 4.50961L17.6456 4.2605ZM17.6456 4.2605C17.7798 4.272 17.9138 4.29183 18.0467 4.32038L17.5054 4.25138C17.552 4.25336 17.5988 4.25653 17.6456 4.2605ZM31.7149 43.1448L31.715 43.145L36.4984 48.0527C36.5038 47.9358 36.5071 47.819 36.5071 47.7018C36.5071 41.5703 31.5185 36.5817 25.387 36.5817C19.2555 36.5817 14.2669 41.5703 14.2669 47.7018C14.2669 48.6603 14.3912 49.5899 14.6208 50.4775L17.8287 46.5213L17.8287 46.5212C18.1608 46.1118 18.6502 45.8611 19.1769 45.8308C19.703 45.7983 20.2198 45.9942 20.5962 46.3629L20.4213 46.5415L20.5962 46.3629L24.3313 50.0215L28.8212 43.4014L31.7149 43.1448ZM31.7149 43.1448C31.3217 42.7421 30.7763 42.5369 30.2074 42.5862L30.207 42.5862M31.7149 43.1448L30.207 42.5862M30.207 42.5862C29.646 42.6357 29.1371 42.9349 28.8213 43.4012L30.207 42.5862ZM19.444 50.4813L22.1935 53.174L35.4146 52.3118C35.4334 52.3312 35.4528 52.3496 35.4721 52.3669C33.704 56.1739 29.851 58.8219 25.387 58.8219C21.6972 58.8219 18.4269 57.0108 16.4019 54.2334L19.444 50.4813ZM30.6342 47.407L35.4144 52.3117L22.8506 55.5434C22.9131 55.5858 22.9775 55.6231 23.0431 55.6556L22.932 55.8795C22.9321 55.8796 22.9321 55.8796 22.9321 55.8796C23.1964 56.0107 23.48 56.0733 23.7611 56.0733C24.3606 56.0733 24.9513 55.7858 25.3139 55.251L30.6342 47.407ZM98.4805 19.0266H7.51967C3.8078 19.0266 0.772461 22.0623 0.772461 25.7738V74.5028C0.772461 78.2142 3.8078 81.25 7.51967 81.25H98.4805C102.192 81.25 105.228 78.2142 105.228 74.5028V25.7738C105.228 22.0623 102.192 19.0266 98.4805 19.0266ZM101.479 74.5028C101.479 76.156 100.134 77.5014 98.4805 77.5014H7.51967C5.86611 77.5014 4.52106 76.156 4.52106 74.5028V25.7738C4.52106 24.1206 5.86611 22.7752 7.51967 22.7752H98.4805C100.134 22.7752 101.479 24.1206 101.479 25.7738V74.5028ZM91.1712 58.0098H61.9338C60.8987 58.0098 60.0595 58.849 60.0595 59.8841C60.0595 60.9192 60.8987 61.7584 61.9338 61.7584H91.1712C92.2063 61.7584 93.0455 60.9192 93.0455 59.8841C93.0455 58.849 92.2063 58.0098 91.1712 58.0098ZM91.1712 64.507H61.9338C60.8987 64.507 60.0595 65.3462 60.0595 66.3813C60.0595 67.4164 60.8987 68.2556 61.9338 68.2556H91.1712C92.2063 68.2556 93.0455 67.4164 93.0455 66.3813C93.0455 65.3462 92.2063 64.507 91.1712 64.507ZM91.1712 71.0042H61.9338C60.8987 71.0042 60.0595 71.8434 60.0595 72.8785C60.0595 73.9136 60.8987 74.7528 61.9338 74.7528H91.1712C92.2063 74.7528 93.0455 73.9136 93.0455 72.8785C93.0455 71.8434 92.2063 71.0042 91.1712 71.0042ZM91.1712 25.5238H68.431C67.3959 25.5238 66.5567 26.363 66.5567 27.3981C66.5567 28.4331 67.3959 29.2724 68.431 29.2724H91.1712C92.2063 29.2724 93.0455 28.4331 93.0455 27.3981C93.0455 26.363 92.2063 25.5238 91.1712 25.5238ZM91.1712 32.021H81.4254C80.3903 32.021 79.5511 32.8602 79.5511 33.8953C79.5511 34.9304 80.3903 35.7696 81.4254 35.7696H91.1712C92.2063 35.7696 93.0455 34.9304 93.0455 33.8953C93.0455 32.8602 92.2063 32.021 91.1712 32.021ZM25.387 32.8331C17.175 32.8331 10.5183 39.4898 10.5183 47.7018C10.5183 55.913 17.175 62.5705 25.387 62.5705C33.5982 62.5705 40.2557 55.913 40.2557 47.7018C40.2557 39.4898 33.5982 32.8331 25.387 32.8331ZM14.4229 65.3191C13.3879 65.3191 12.5486 66.1584 12.5486 67.1934C12.5486 68.2285 13.3879 69.0677 14.4229 69.0677H36.351C37.3861 69.0677 38.2253 68.2285 38.2253 67.1934C38.2253 66.1584 37.3861 65.3191 36.351 65.3191H14.4229ZM23.0187 44.5002C24.0538 44.5002 24.893 43.661 24.893 42.6259C24.893 41.5908 24.0538 40.7516 23.0187 40.7516C21.9836 40.7516 21.1444 41.5908 21.1444 42.6259C21.1444 43.661 21.9836 44.5002 23.0187 44.5002Z" fill="url(#paint0_linear)" stroke="url(#paint1_linear)" stroke-width="0.5"/>
<defs>
<linearGradient id="paint0_linear" x1="1.02246" y1="1" x2="118.579" y2="42.0579" gradientUnits="userSpaceOnUse">
<stop stop-color="#009FE3"/>
<stop offset="0.512001" stop-color="#E6007E"/>
<stop offset="1" stop-color="#FFED00"/>
</linearGradient>
<linearGradient id="paint1_linear" x1="1.02246" y1="1" x2="118.579" y2="42.0579" gradientUnits="userSpaceOnUse">
<stop stop-color="#009FE3"/>
<stop offset="0.512001" stop-color="#E6007E"/>
<stop offset="1" stop-color="#FFED00"/>
</linearGradient>
</defs>
</svg>
