<svg width="74" height="82" viewBox="0 0 74 82" fill="none" xmlns="http://www.w3.org/2000/svg">
<mask id="path-1-outside-1" maskUnits="userSpaceOnUse" x="0.102539" y="0" width="74" height="82" fill="black">
<rect fill="white" x="0.102539" width="74" height="82"/>
<path fill-rule="evenodd" clip-rule="evenodd" d="M2.43208 22.3333H7.75023C8.04663 22.3333 8.33452 22.234 8.56817 22.0511C8.80183 21.8682 8.96786 21.6123 9.03989 21.324L11.4477 11.6666H27.6933V71.8225L18.2217 73.0105C17.9002 73.0508 17.6044 73.2074 17.39 73.451C17.1755 73.6945 17.0571 74.0082 17.057 74.3332V79.6665C17.057 80.0201 17.1971 80.3592 17.4464 80.6093C17.6958 80.8594 18.0339 80.9998 18.3865 80.9998H50.2955C50.6481 80.9998 50.9863 80.8594 51.2356 80.6093C51.4849 80.3592 51.625 80.0201 51.625 79.6665V74.3332C51.6249 74.0082 51.5065 73.6945 51.2921 73.451C51.0776 73.2074 50.7818 73.0508 50.4603 73.0105L40.9887 71.8225V11.6666H57.2343L59.6421 21.324C59.7142 21.6123 59.8802 21.8682 60.1138 22.0511C60.3475 22.234 60.6354 22.3333 60.9318 22.3333H66.2499C66.6026 22.3333 66.9407 22.1928 67.1901 21.9428C67.4394 21.6927 67.5795 21.3536 67.5795 21V2.33333C67.5795 1.97971 67.4394 1.64057 67.1901 1.39052C66.9407 1.14048 66.6026 1 66.2499 1H2.43208C2.07946 1 1.74129 1.14048 1.49195 1.39052C1.24262 1.64057 1.10254 1.97971 1.10254 2.33333V21C1.10254 21.3536 1.24262 21.6927 1.49195 21.9428C1.74129 22.1928 2.07946 22.3333 2.43208 22.3333ZM3.76162 3.66666H64.9204V19.6666H61.9701L59.5624 10.0093C59.4903 9.72099 59.3243 9.46506 59.0906 9.28219C58.857 9.09932 58.5691 8.99999 58.2727 8.99998H39.6592C39.3065 8.99998 38.9684 9.14046 38.719 9.39051C38.4697 9.64055 38.3296 9.97969 38.3296 10.3333V72.9998C38.3297 73.3248 38.4481 73.6385 38.6626 73.882C38.877 74.1256 39.1728 74.2822 39.4943 74.3225L48.9659 75.5105V78.3332H19.7161V75.5105L29.1877 74.3225C29.5092 74.2822 29.805 74.1256 30.0194 73.882C30.2339 73.6385 30.3523 73.3248 30.3524 72.9998V10.3333C30.3524 9.97969 30.2123 9.64055 29.963 9.39051C29.7136 9.14046 29.3755 8.99998 29.0229 8.99998H10.4093C10.1129 8.99999 9.82503 9.09932 9.59137 9.28219C9.35771 9.46506 9.19168 9.72099 9.11966 10.0093L6.71186 19.6666H3.76162V3.66666ZM61.2124 29.5148L51.9057 41.5148C51.7756 41.6824 51.6874 41.8787 51.6483 42.0874C51.6092 42.2962 51.6204 42.5112 51.681 42.7148L55.1697 54.3774C54.1553 54.4862 53.2213 54.9816 52.5608 55.7614C51.9003 56.5411 51.5638 57.5455 51.6208 58.5671C51.6779 59.5886 52.124 60.5491 52.8672 61.25C53.6103 61.951 54.5936 62.3388 55.6137 62.3334V79.6667C55.6137 80.0203 55.7538 80.3594 56.0032 80.6095C56.2525 80.8595 56.5907 81 56.9433 81H67.5796C67.9322 81 68.2704 80.8595 68.5197 80.6095C68.7691 80.3594 68.9091 80.0203 68.9091 79.6667V62.3334C69.9271 62.3355 70.9072 61.9462 71.6476 61.2456C72.388 60.545 72.8325 59.5863 72.8894 58.567C72.9463 57.5477 72.6113 56.5454 71.9535 55.7662C71.2957 54.9871 70.3651 54.4905 69.3532 54.3787L72.8419 42.7161C72.9025 42.5126 72.9137 42.2975 72.8746 42.0888C72.8355 41.88 72.7473 41.6837 72.6172 41.5161L63.3104 29.5161C63.1814 29.3634 63.0207 29.2408 62.8396 29.1566C62.6585 29.0724 62.4613 29.0287 62.2617 29.0286C62.0621 29.0285 61.8649 29.0719 61.6837 29.1558C61.5025 29.2398 61.3417 29.3623 61.2124 29.5148ZM58.2728 78.3333V62.3334H66.2501V78.3333H58.2728ZM70.2387 58.3334C70.2387 58.687 70.0986 59.0261 69.8493 59.2762C69.5999 59.5262 69.2617 59.6667 68.9091 59.6667H55.6137C55.2611 59.6667 54.923 59.5262 54.6736 59.2762C54.4243 59.0261 54.2842 58.687 54.2842 58.3334C54.2842 57.9798 54.4243 57.6406 54.6736 57.3906C54.923 57.1405 55.2611 57 55.6137 57H68.9091C69.2617 57 69.5999 57.1405 69.8493 57.3906C70.0986 57.6406 70.2387 57.9798 70.2387 58.3334ZM57.9325 54.3334L54.4251 42.6094L62.2614 32.5054L70.0977 42.6094L66.5904 54.3334H57.9325ZM58.9449 45.8888C58.5066 45.2311 58.2727 44.4577 58.2727 43.6666C58.2727 42.6057 58.6929 41.5883 59.4409 40.8382C60.189 40.088 61.2035 39.6666 62.2613 39.6666C63.0502 39.6666 63.8214 39.9012 64.4773 40.3407C65.1332 40.7802 65.6444 41.4049 65.9463 42.1358C66.2482 42.8667 66.3272 43.671 66.1733 44.4469C66.0194 45.2229 65.6395 45.9356 65.0817 46.495C64.5239 47.0544 63.8132 47.4354 63.0395 47.5897C62.2657 47.744 61.4638 47.6648 60.7349 47.3621C60.0061 47.0593 59.3832 46.5466 58.9449 45.8888ZM63.3668 44.4073C63.5129 44.1881 63.5909 43.9303 63.5909 43.6666C63.5909 43.313 63.4508 42.9738 63.2014 42.7238C62.9521 42.4737 62.6139 42.3332 62.2613 42.3332C61.9984 42.3332 61.7413 42.4114 61.5227 42.5579C61.304 42.7045 61.1336 42.9127 61.033 43.1563C60.9324 43.4 60.906 43.6681 60.9573 43.9267C61.0086 44.1853 61.1353 44.4229 61.3212 44.6094C61.5071 44.7958 61.744 44.9228 62.0019 44.9743C62.2598 45.0257 62.5272 44.9993 62.7701 44.8984C63.0131 44.7975 63.2207 44.6266 63.3668 44.4073Z"/>
</mask>
<path fill-rule="evenodd" clip-rule="evenodd" d="M2.43208 22.3333H7.75023C8.04663 22.3333 8.33452 22.234 8.56817 22.0511C8.80183 21.8682 8.96786 21.6123 9.03989 21.324L11.4477 11.6666H27.6933V71.8225L18.2217 73.0105C17.9002 73.0508 17.6044 73.2074 17.39 73.451C17.1755 73.6945 17.0571 74.0082 17.057 74.3332V79.6665C17.057 80.0201 17.1971 80.3592 17.4464 80.6093C17.6958 80.8594 18.0339 80.9998 18.3865 80.9998H50.2955C50.6481 80.9998 50.9863 80.8594 51.2356 80.6093C51.4849 80.3592 51.625 80.0201 51.625 79.6665V74.3332C51.6249 74.0082 51.5065 73.6945 51.2921 73.451C51.0776 73.2074 50.7818 73.0508 50.4603 73.0105L40.9887 71.8225V11.6666H57.2343L59.6421 21.324C59.7142 21.6123 59.8802 21.8682 60.1138 22.0511C60.3475 22.234 60.6354 22.3333 60.9318 22.3333H66.2499C66.6026 22.3333 66.9407 22.1928 67.1901 21.9428C67.4394 21.6927 67.5795 21.3536 67.5795 21V2.33333C67.5795 1.97971 67.4394 1.64057 67.1901 1.39052C66.9407 1.14048 66.6026 1 66.2499 1H2.43208C2.07946 1 1.74129 1.14048 1.49195 1.39052C1.24262 1.64057 1.10254 1.97971 1.10254 2.33333V21C1.10254 21.3536 1.24262 21.6927 1.49195 21.9428C1.74129 22.1928 2.07946 22.3333 2.43208 22.3333ZM3.76162 3.66666H64.9204V19.6666H61.9701L59.5624 10.0093C59.4903 9.72099 59.3243 9.46506 59.0906 9.28219C58.857 9.09932 58.5691 8.99999 58.2727 8.99998H39.6592C39.3065 8.99998 38.9684 9.14046 38.719 9.39051C38.4697 9.64055 38.3296 9.97969 38.3296 10.3333V72.9998C38.3297 73.3248 38.4481 73.6385 38.6626 73.882C38.877 74.1256 39.1728 74.2822 39.4943 74.3225L48.9659 75.5105V78.3332H19.7161V75.5105L29.1877 74.3225C29.5092 74.2822 29.805 74.1256 30.0194 73.882C30.2339 73.6385 30.3523 73.3248 30.3524 72.9998V10.3333C30.3524 9.97969 30.2123 9.64055 29.963 9.39051C29.7136 9.14046 29.3755 8.99998 29.0229 8.99998H10.4093C10.1129 8.99999 9.82503 9.09932 9.59137 9.28219C9.35771 9.46506 9.19168 9.72099 9.11966 10.0093L6.71186 19.6666H3.76162V3.66666ZM61.2124 29.5148L51.9057 41.5148C51.7756 41.6824 51.6874 41.8787 51.6483 42.0874C51.6092 42.2962 51.6204 42.5112 51.681 42.7148L55.1697 54.3774C54.1553 54.4862 53.2213 54.9816 52.5608 55.7614C51.9003 56.5411 51.5638 57.5455 51.6208 58.5671C51.6779 59.5886 52.124 60.5491 52.8672 61.25C53.6103 61.951 54.5936 62.3388 55.6137 62.3334V79.6667C55.6137 80.0203 55.7538 80.3594 56.0032 80.6095C56.2525 80.8595 56.5907 81 56.9433 81H67.5796C67.9322 81 68.2704 80.8595 68.5197 80.6095C68.7691 80.3594 68.9091 80.0203 68.9091 79.6667V62.3334C69.9271 62.3355 70.9072 61.9462 71.6476 61.2456C72.388 60.545 72.8325 59.5863 72.8894 58.567C72.9463 57.5477 72.6113 56.5454 71.9535 55.7662C71.2957 54.9871 70.3651 54.4905 69.3532 54.3787L72.8419 42.7161C72.9025 42.5126 72.9137 42.2975 72.8746 42.0888C72.8355 41.88 72.7473 41.6837 72.6172 41.5161L63.3104 29.5161C63.1814 29.3634 63.0207 29.2408 62.8396 29.1566C62.6585 29.0724 62.4613 29.0287 62.2617 29.0286C62.0621 29.0285 61.8649 29.0719 61.6837 29.1558C61.5025 29.2398 61.3417 29.3623 61.2124 29.5148ZM58.2728 78.3333V62.3334H66.2501V78.3333H58.2728ZM70.2387 58.3334C70.2387 58.687 70.0986 59.0261 69.8493 59.2762C69.5999 59.5262 69.2617 59.6667 68.9091 59.6667H55.6137C55.2611 59.6667 54.923 59.5262 54.6736 59.2762C54.4243 59.0261 54.2842 58.687 54.2842 58.3334C54.2842 57.9798 54.4243 57.6406 54.6736 57.3906C54.923 57.1405 55.2611 57 55.6137 57H68.9091C69.2617 57 69.5999 57.1405 69.8493 57.3906C70.0986 57.6406 70.2387 57.9798 70.2387 58.3334ZM57.9325 54.3334L54.4251 42.6094L62.2614 32.5054L70.0977 42.6094L66.5904 54.3334H57.9325ZM58.9449 45.8888C58.5066 45.2311 58.2727 44.4577 58.2727 43.6666C58.2727 42.6057 58.6929 41.5883 59.4409 40.8382C60.189 40.088 61.2035 39.6666 62.2613 39.6666C63.0502 39.6666 63.8214 39.9012 64.4773 40.3407C65.1332 40.7802 65.6444 41.4049 65.9463 42.1358C66.2482 42.8667 66.3272 43.671 66.1733 44.4469C66.0194 45.2229 65.6395 45.9356 65.0817 46.495C64.5239 47.0544 63.8132 47.4354 63.0395 47.5897C62.2657 47.744 61.4638 47.6648 60.7349 47.3621C60.0061 47.0593 59.3832 46.5466 58.9449 45.8888ZM63.3668 44.4073C63.5129 44.1881 63.5909 43.9303 63.5909 43.6666C63.5909 43.313 63.4508 42.9738 63.2014 42.7238C62.9521 42.4737 62.6139 42.3332 62.2613 42.3332C61.9984 42.3332 61.7413 42.4114 61.5227 42.5579C61.304 42.7045 61.1336 42.9127 61.033 43.1563C60.9324 43.4 60.906 43.6681 60.9573 43.9267C61.0086 44.1853 61.1353 44.4229 61.3212 44.6094C61.5071 44.7958 61.744 44.9228 62.0019 44.9743C62.2598 45.0257 62.5272 44.9993 62.7701 44.8984C63.0131 44.7975 63.2207 44.6266 63.3668 44.4073Z" fill="url(#paint0_linear)"/>
<path fill-rule="evenodd" clip-rule="evenodd" d="M2.43208 22.3333H7.75023C8.04663 22.3333 8.33452 22.234 8.56817 22.0511C8.80183 21.8682 8.96786 21.6123 9.03989 21.324L11.4477 11.6666H27.6933V71.8225L18.2217 73.0105C17.9002 73.0508 17.6044 73.2074 17.39 73.451C17.1755 73.6945 17.0571 74.0082 17.057 74.3332V79.6665C17.057 80.0201 17.1971 80.3592 17.4464 80.6093C17.6958 80.8594 18.0339 80.9998 18.3865 80.9998H50.2955C50.6481 80.9998 50.9863 80.8594 51.2356 80.6093C51.4849 80.3592 51.625 80.0201 51.625 79.6665V74.3332C51.6249 74.0082 51.5065 73.6945 51.2921 73.451C51.0776 73.2074 50.7818 73.0508 50.4603 73.0105L40.9887 71.8225V11.6666H57.2343L59.6421 21.324C59.7142 21.6123 59.8802 21.8682 60.1138 22.0511C60.3475 22.234 60.6354 22.3333 60.9318 22.3333H66.2499C66.6026 22.3333 66.9407 22.1928 67.1901 21.9428C67.4394 21.6927 67.5795 21.3536 67.5795 21V2.33333C67.5795 1.97971 67.4394 1.64057 67.1901 1.39052C66.9407 1.14048 66.6026 1 66.2499 1H2.43208C2.07946 1 1.74129 1.14048 1.49195 1.39052C1.24262 1.64057 1.10254 1.97971 1.10254 2.33333V21C1.10254 21.3536 1.24262 21.6927 1.49195 21.9428C1.74129 22.1928 2.07946 22.3333 2.43208 22.3333ZM3.76162 3.66666H64.9204V19.6666H61.9701L59.5624 10.0093C59.4903 9.72099 59.3243 9.46506 59.0906 9.28219C58.857 9.09932 58.5691 8.99999 58.2727 8.99998H39.6592C39.3065 8.99998 38.9684 9.14046 38.719 9.39051C38.4697 9.64055 38.3296 9.97969 38.3296 10.3333V72.9998C38.3297 73.3248 38.4481 73.6385 38.6626 73.882C38.877 74.1256 39.1728 74.2822 39.4943 74.3225L48.9659 75.5105V78.3332H19.7161V75.5105L29.1877 74.3225C29.5092 74.2822 29.805 74.1256 30.0194 73.882C30.2339 73.6385 30.3523 73.3248 30.3524 72.9998V10.3333C30.3524 9.97969 30.2123 9.64055 29.963 9.39051C29.7136 9.14046 29.3755 8.99998 29.0229 8.99998H10.4093C10.1129 8.99999 9.82503 9.09932 9.59137 9.28219C9.35771 9.46506 9.19168 9.72099 9.11966 10.0093L6.71186 19.6666H3.76162V3.66666ZM61.2124 29.5148L51.9057 41.5148C51.7756 41.6824 51.6874 41.8787 51.6483 42.0874C51.6092 42.2962 51.6204 42.5112 51.681 42.7148L55.1697 54.3774C54.1553 54.4862 53.2213 54.9816 52.5608 55.7614C51.9003 56.5411 51.5638 57.5455 51.6208 58.5671C51.6779 59.5886 52.124 60.5491 52.8672 61.25C53.6103 61.951 54.5936 62.3388 55.6137 62.3334V79.6667C55.6137 80.0203 55.7538 80.3594 56.0032 80.6095C56.2525 80.8595 56.5907 81 56.9433 81H67.5796C67.9322 81 68.2704 80.8595 68.5197 80.6095C68.7691 80.3594 68.9091 80.0203 68.9091 79.6667V62.3334C69.9271 62.3355 70.9072 61.9462 71.6476 61.2456C72.388 60.545 72.8325 59.5863 72.8894 58.567C72.9463 57.5477 72.6113 56.5454 71.9535 55.7662C71.2957 54.9871 70.3651 54.4905 69.3532 54.3787L72.8419 42.7161C72.9025 42.5126 72.9137 42.2975 72.8746 42.0888C72.8355 41.88 72.7473 41.6837 72.6172 41.5161L63.3104 29.5161C63.1814 29.3634 63.0207 29.2408 62.8396 29.1566C62.6585 29.0724 62.4613 29.0287 62.2617 29.0286C62.0621 29.0285 61.8649 29.0719 61.6837 29.1558C61.5025 29.2398 61.3417 29.3623 61.2124 29.5148ZM58.2728 78.3333V62.3334H66.2501V78.3333H58.2728ZM70.2387 58.3334C70.2387 58.687 70.0986 59.0261 69.8493 59.2762C69.5999 59.5262 69.2617 59.6667 68.9091 59.6667H55.6137C55.2611 59.6667 54.923 59.5262 54.6736 59.2762C54.4243 59.0261 54.2842 58.687 54.2842 58.3334C54.2842 57.9798 54.4243 57.6406 54.6736 57.3906C54.923 57.1405 55.2611 57 55.6137 57H68.9091C69.2617 57 69.5999 57.1405 69.8493 57.3906C70.0986 57.6406 70.2387 57.9798 70.2387 58.3334ZM57.9325 54.3334L54.4251 42.6094L62.2614 32.5054L70.0977 42.6094L66.5904 54.3334H57.9325ZM58.9449 45.8888C58.5066 45.2311 58.2727 44.4577 58.2727 43.6666C58.2727 42.6057 58.6929 41.5883 59.4409 40.8382C60.189 40.088 61.2035 39.6666 62.2613 39.6666C63.0502 39.6666 63.8214 39.9012 64.4773 40.3407C65.1332 40.7802 65.6444 41.4049 65.9463 42.1358C66.2482 42.8667 66.3272 43.671 66.1733 44.4469C66.0194 45.2229 65.6395 45.9356 65.0817 46.495C64.5239 47.0544 63.8132 47.4354 63.0395 47.5897C62.2657 47.744 61.4638 47.6648 60.7349 47.3621C60.0061 47.0593 59.3832 46.5466 58.9449 45.8888ZM63.3668 44.4073C63.5129 44.1881 63.5909 43.9303 63.5909 43.6666C63.5909 43.313 63.4508 42.9738 63.2014 42.7238C62.9521 42.4737 62.6139 42.3332 62.2613 42.3332C61.9984 42.3332 61.7413 42.4114 61.5227 42.5579C61.304 42.7045 61.1336 42.9127 61.033 43.1563C60.9324 43.4 60.906 43.6681 60.9573 43.9267C61.0086 44.1853 61.1353 44.4229 61.3212 44.6094C61.5071 44.7958 61.744 44.9228 62.0019 44.9743C62.2598 45.0257 62.5272 44.9993 62.7701 44.8984C63.0131 44.7975 63.2207 44.6266 63.3668 44.4073Z" stroke="url(#paint1_linear)" mask="url(#path-1-outside-1)"/>
<defs>
<linearGradient id="paint0_linear" x1="1.10254" y1="1" x2="87.1857" y2="21.7642" gradientUnits="userSpaceOnUse">
<stop stop-color="#009FE3"/>
<stop offset="0.512001" stop-color="#E6007E"/>
<stop offset="1" stop-color="#FFED00"/>
</linearGradient>
<linearGradient id="paint1_linear" x1="1.10254" y1="1" x2="87.1857" y2="21.7642" gradientUnits="userSpaceOnUse">
<stop stop-color="#009FE3"/>
<stop offset="0.512001" stop-color="#E6007E"/>
<stop offset="1" stop-color="#FFED00"/>
</linearGradient>
</defs>
</svg>
