<svg width="92" height="80" viewBox="0 0 92 80" fill="none" xmlns="http://www.w3.org/2000/svg">
<path fill-rule="evenodd" clip-rule="evenodd" d="M75.3334 2.66667C75.3334 1.19391 76.5273 3.17891e-07 78.0001 3.17891e-07H88.6667C90.1395 3.17891e-07 91.3334 1.19391 91.3334 2.66667V66.6667C91.3334 67.0807 91.237 67.4889 91.0519 67.8592L85.7185 78.5259C84.7358 80.4913 81.931 80.4913 80.9483 78.5259L75.6149 67.8592C75.4298 67.4889 75.3334 67.0807 75.3334 66.6667V2.66667ZM83.3334 71.3705L86.0001 66.0372V62.6667H80.6667V66.0372L83.3334 71.3705ZM86.0001 57.3333V16H80.6667V57.3333H86.0001ZM80.6667 10.6667H86.0001V5.33333H80.6667V10.6667ZM14.0001 5.33333V2.66667C14.0001 -0.888889 19.3334 -0.888889 19.3334 2.66667V5.33333H28.6667V2.66667C28.6667 -0.888889 34.0001 -0.888889 34.0001 2.66667V5.33333H43.3334V2.66667C43.3334 -0.888889 48.6667 -0.888889 48.6667 2.66667V5.33333H53.9893C58.409 5.33333 62.0001 8.91811 62.0001 13.3278V72C62.0001 76.4207 58.4155 80 53.9893 80H8.67757C4.25651 80 0.666748 76.4141 0.666748 72V13.3278C0.666748 8.90961 4.25199 5.33333 8.67757 5.33333H14.0001ZM6.00008 26.6667V72C6.00008 73.4673 7.20077 74.6667 8.67757 74.6667H53.9893C55.4717 74.6667 56.6667 73.4734 56.6667 72V26.6667H6.00008ZM14.0001 10.6667H8.67757C7.19451 10.6667 6.00008 11.8581 6.00008 13.3278V21.3333H56.6667V13.3278C56.6667 11.8657 55.4656 10.6667 53.9893 10.6667H48.6667V13.3333C48.6667 16.8889 43.3334 16.8889 43.3334 13.3333V10.6667H34.0001V13.3333C34.0001 16.8889 28.6667 16.8889 28.6667 13.3333V10.6667H19.3334V13.3333C19.3334 16.8889 14.0001 16.8889 14.0001 13.3333V10.6667ZM16.6667 34.6667H46.0001C49.5556 34.6667 49.5556 40 46.0001 40H16.6667C13.1112 40 13.1112 34.6667 16.6667 34.6667ZM16.6667 48H46.0001C49.5556 48 49.5556 53.3333 46.0001 53.3333H16.6667C13.1112 53.3333 13.1112 48 16.6667 48ZM16.6667 61.3333H32.6667C36.2223 61.3333 36.2223 66.6667 32.6667 66.6667H16.6667C13.1112 66.6667 13.1112 61.3333 16.6667 61.3333Z" fill="url(#paint0_linear)"/>
<defs>
<linearGradient id="paint0_linear" x1="0.666748" y1="0" x2="105.935" y2="32.0662" gradientUnits="userSpaceOnUse">
<stop stop-color="#009FE3"/>
<stop offset="0.512001" stop-color="#E6007E"/>
<stop offset="1" stop-color="#FFED00"/>
</linearGradient>
</defs>
</svg>
