<svg width="80" height="80" viewBox="0 0 80 80" fill="none" xmlns="http://www.w3.org/2000/svg">
<path d="M80 30.3C80 19.2 71 10.2 59.9 10.2H56.9V2.9C57 1.3 55.7 0 54.1 0H2.9C1.3 0 0 1.3 0 2.9V68.2C0 74.7 5.3 80 11.8 80H45.1C51.4 80 56.4 75.2 56.9 69C58 69.5 59.2 69.7 60.5 69.7C65.6 69.7 69.8 65.5 69.8 60.4C69.8 58.3 68.8 56.3 67.1 55L76.4 41.8C78.7 38.5 80 34.5 80 30.3ZM64 53.8C63.7 53.8 63.4 53.7 63.1 53.7C60.8 53.7 58.9 55.6 58.9 57.9C58.9 60.2 60.8 62.1 63.1 62.1H64.7V58.9H63C62.5 58.9 62 58.5 62 57.9C62 57.4 62.4 56.9 63 56.9C64.9 56.9 66.5 58.5 66.5 60.4C66.5 63.8 63.8 66.5 60.4 66.5C57 66.5 54.3 63.8 54.3 60.4C54.3 58.3 55.1 56.4 56.5 54.9L71 39.7C73.5 37 74.9 33.5 74.9 29.8C74.9 21.8 68.4 15.4 60.5 15.4H57V13.5H60C69.3 13.5 76.9 21.1 76.9 30.4C76.9 33.9 75.8 37.3 73.8 40.1L64 53.8ZM71.7 29.8C71.7 32.7 70.6 35.4 68.6 37.5L57 49.9V18.6H60.5C66.6 18.6 71.7 23.6 71.7 29.8ZM3.2 7.7V3.2H53.8V7.7H3.2ZM45.1 76.8H11.8C7 76.8 3.2 72.9 3.2 68.2V10.9H53.8V53.4C52.1 55.4 51.2 57.9 51.2 60.5C51.2 62.9 52.1 65.2 53.8 66.9V68.2C53.8 72.9 49.9 76.8 45.1 76.8Z" fill="url(#paint0_linear)"/>
<path d="M27.7001 25.6001C19.1001 25.6001 12.1001 32.6001 12.1001 41.2001C12.1001 49.8001 19.1001 56.8001 27.7001 56.8001C36.3001 56.8001 43.3001 49.8001 43.3001 41.2001C43.2001 32.6001 36.3001 25.6001 27.7001 25.6001ZM27.7001 53.3001C23.6001 53.3001 20.0001 51.3001 17.8001 48.1001L21.3001 43.7001L24.6001 46.9001L24.5001 47.1001C24.0001 47.9001 24.2001 49.0001 25.0001 49.5001C25.3001 49.7001 25.6001 49.8001 26.0001 49.8001C26.6001 49.8001 27.1001 49.5001 27.4001 49.0001L33.2001 40.4001L38.5001 45.9001C38.6001 46.0001 38.6001 46.0001 38.7001 46.1001C36.9001 50.3001 32.6001 53.3001 27.7001 53.3001ZM39.7001 42.2001L34.2001 36.6001C33.8001 36.2001 33.3001 36.0001 32.8001 36.1001C32.3001 36.1001 31.8001 36.4001 31.5001 36.9001L26.5001 44.2001L22.3001 40.1001C22.0001 39.8001 21.5001 39.6001 21.0001 39.6001C20.5001 39.6001 20.1001 39.9001 19.8001 40.2001L16.1001 44.8001C15.8001 43.7001 15.6001 42.5001 15.6001 41.3001C15.6001 34.6001 21.0001 29.2001 27.7001 29.2001C34.4001 29.2001 39.8001 34.6001 39.8001 41.3001C39.8001 41.5001 39.8001 41.8001 39.7001 42.2001Z" fill="url(#paint1_linear)"/>
<path d="M25.2 34.1001C24.2 34.1001 23.5 34.9001 23.5 35.8001C23.5 36.8001 24.3 37.5001 25.2 37.5001C26.2 37.5001 26.9 36.7001 26.9 35.8001C26.9 34.8001 26.1 34.1001 25.2 34.1001Z" fill="url(#paint2_linear)"/>
<defs>
<linearGradient id="paint0_linear" x1="0" y1="0" x2="94.6636" y2="25.4435" gradientUnits="userSpaceOnUse">
<stop stop-color="#009FE3"/>
<stop offset="0.512001" stop-color="#E6007E"/>
<stop offset="1" stop-color="#FFED00"/>
</linearGradient>
<linearGradient id="paint1_linear" x1="12.1001" y1="25.6001" x2="49.0189" y2="35.5231" gradientUnits="userSpaceOnUse">
<stop stop-color="#009FE3"/>
<stop offset="0.512001" stop-color="#E6007E"/>
<stop offset="1" stop-color="#FFED00"/>
</linearGradient>
<linearGradient id="paint2_linear" x1="23.5" y1="34.1001" x2="27.5232" y2="35.1814" gradientUnits="userSpaceOnUse">
<stop stop-color="#009FE3"/>
<stop offset="0.512001" stop-color="#E6007E"/>
<stop offset="1" stop-color="#FFED00"/>
</linearGradient>
</defs>
</svg>
