<svg width="80" height="80" viewBox="0 0 80 80" fill="none" xmlns="http://www.w3.org/2000/svg">
<path fill-rule="evenodd" clip-rule="evenodd" d="M75.9375 31.6094L70.6094 14.4219C70.0313 12.2969 68.5938 10.5 66.6563 9.45312L66.6406 9.4375L50.5 1.15625C49.8906 0.828125 49.25 0.578125 48.5938 0.390625C48 0.21875 47.4063 0.109375 46.7969 0.046875C46.5 0.015625 46.2031 0 45.8906 0H34.1406C33.8438 0 33.5469 0.015625 33.25 0.046875C31.9531 0.171875 30.6875 0.546875 29.5313 1.15625L12.4219 9.54688C12.4063 9.54688 12.3906 9.5625 12.3906 9.5625C10.5781 10.5312 9.20314 12.1406 8.56252 14.0938C8.55471 14.1094 8.5508 14.125 8.54689 14.1406C8.54299 14.1562 8.53908 14.1719 8.53127 14.1875L4.04689 31.6719C3.89064 32.2969 4.20314 32.9531 4.78127 33.2188L15.4531 38.0625C16.0938 38.3594 16.8438 38.0938 17.1875 37.4688L18.6719 34.6719V78.6562C18.6719 79.3906 19.2656 79.9844 20 79.9844H60C60.7344 79.9844 61.3281 79.3906 61.3281 78.6562V35.7656L62.0313 37.375C62.3281 38.0469 63.1094 38.3594 63.7813 38.0781L75.1875 33.2344C75.8125 32.9531 76.1406 32.2656 75.9375 31.6094ZM47.4063 2.82812L47.4714 2.84244L47.4715 2.84245C47.5941 2.86925 47.7246 2.89776 47.8438 2.9375C48.2188 3.04687 48.5938 3.1875 48.9375 3.34375L47.0313 13.8594L43.0781 11.4844L47.4063 2.82812ZM44.5156 2.67188L40.5156 10.6719H39.5L35.5 2.67188H44.5156ZM41.3281 13.5625V18.6719H38.6563V13.5625L39.0313 13.3438H40.9531L41.3281 13.5625ZM32.3281 2.89062C32.3672 2.88281 32.4102 2.87109 32.4531 2.85938C32.4961 2.84766 32.5391 2.83594 32.5781 2.82812L36.9063 11.4844L32.9688 13.8594L31.0625 3.35938C31.4688 3.15625 31.8906 3 32.3281 2.89062ZM63.9531 35.1094L61.4688 29.375L63.8594 24.5938L61.4688 23.4062L58.7969 28.7344C58.7031 28.9219 58.6563 29.125 58.6563 29.3281V77.3281H21.3281V29.3281C21.3281 29.125 21.2813 28.9219 21.1875 28.7344L18.5156 23.4062L16.125 24.5938L18.4844 29.3125L15.3906 35.1094L6.90627 31.25L11.1094 14.9062C11.5469 13.6406 12.4375 12.5781 13.625 11.9375L28.5781 4.59375L30.7031 16.25C30.8281 16.9688 31.5313 17.4531 32.25 17.3281C32.4063 17.2969 32.5625 17.25 32.7031 17.1562L36 15.1562V20C36 20.7344 36.5938 21.3281 37.3281 21.3281H42.6563C43.3906 21.3281 43.9844 20.7344 43.9844 20V15.1562L47.2969 17.1406C47.9219 17.5156 48.75 17.3125 49.125 16.6875C49.2031 16.5469 49.2656 16.3906 49.2969 16.2344L51.4063 4.625L65.3906 11.8125C66.6875 12.5156 67.6406 13.7188 68.0313 15.1406C68.0313 15.1484 68.0352 15.1562 68.0391 15.1641C68.043 15.1719 68.0469 15.1797 68.0469 15.1875L73.0313 31.25L63.9531 35.1094ZM48 24C43.566 24 40 27.5894 40 32C40 36.434 43.5894 40 48 40C52.434 40 56 36.4106 56 32C56 27.5894 52.434 24 48 24ZM48 38.2405C45.8886 38.2405 44.0352 37.1848 42.9091 35.5894L44.739 33.3372L46.4282 35.0029L46.3812 35.0733C46.0997 35.4721 46.217 36.0352 46.6158 36.3167C46.7801 36.4106 46.9443 36.4809 47.1085 36.4809C47.39 36.4809 47.6716 36.3402 47.8358 36.0821L50.8387 31.6481L53.5836 34.4633L53.6774 34.5572C52.7155 36.7155 50.5337 38.2405 48 38.2405ZM54.1935 32.5161L51.3548 29.607C51.1672 29.4194 50.9091 29.3255 50.6276 29.349C50.3695 29.3724 50.1114 29.5132 49.9707 29.7243L47.4135 33.478L45.2551 31.3666C45.0674 31.2023 44.8328 31.1085 44.5748 31.1085C44.3167 31.132 44.0821 31.2493 43.9414 31.437L42.0176 33.8065C41.8534 33.2434 41.7361 32.6334 41.7361 32C41.7361 28.5748 44.5279 25.7595 47.9765 25.7595C51.4018 25.7595 54.217 28.5513 54.217 32C54.2405 32.1642 54.217 32.3519 54.1935 32.5161ZM46 29C46 28.4474 46.4474 28 47 28C47.5526 28 48 28.4474 48 29C48 29.5526 47.5526 30 47 30C46.4474 30 46 29.5526 46 29Z" fill="url(#paint0_linear)"/>
<defs>
<linearGradient id="paint0_linear" x1="4.00684" y1="0" x2="90.297" y2="20.875" gradientUnits="userSpaceOnUse">
<stop stop-color="#009FE3"/>
<stop offset="0.512001" stop-color="#E6007E"/>
<stop offset="1" stop-color="#FFED00"/>
</linearGradient>
</defs>
</svg>
